<svg xmlns="http://www.w3.org/2000/svg" data-name="Layer 1" viewBox="0 0 100 100"><path d="M86.8 38.2H19.8a7.2 7.2 0 001.7-2.2l4.9-1.3L34 21.9 17.2 26a7.3 7.3 0 00-2.3-.4 7.2 7.2 0 00-4.6 12.7V85a2.5 2.5 0 002.5 2.5h73.7A2.5 2.5 0 0089 85V40.4a2.2 2.2 0 00-2.2-2.2zm-76-5.3a4 4 0 114 4 4 4 0 01-4-4zm73.7 47.5H14.9a1 1 0 010-2h69.6a1 1 0 010 2zm0-18.4H14.9a1 1 0 010-2h21.4V45.6a1 1 0 112 0V60h22V45.6a1 1 0 012 0V60h22.2a1 1 0 010 2zM75 11.4l-7.8 13 5.6-1.4 7.7-13-5.6 1.4zM78.8 21.5l8.2-2.1a2.2 2.2 0 001.6-2.7l-2-8.2z"/><path d="M57.3 16l-5.6 1.3-7.8 13 5.6-1.4 7.8-13zM32.3 33.2l5.6-1.4 7.8-13-5.7 1.5-7.7 13zM63.3 14.4l-7.7 13 5.6-1.5 7.7-13-5.6 1.5z"/></svg>
