<svg xmlns="http://www.w3.org/2000/svg" data-name="Layer 1" viewBox="0 0 100 100" x="0px" y="0px"><title>Action</title><path d="M86.85,38.2H19.7A7.18,7.18,0,0,0,21.36,36l4.94-1.25L34,21.8,17.24,26a7.34,7.34,0,0,0-2.35-.4,7.21,7.21,0,0,0-4.62,12.74V84.86a2.55,2.55,0,0,0,2.55,2.55H86.51a2.55,2.55,0,0,0,2.54-2.55V40.4A2.19,2.19,0,0,0,86.85,38.2Zm-76-5.35a4,4,0,1,1,4,4A4,4,0,0,1,10.89,32.85ZM84.47,80.44H14.89a1,1,0,0,1,0-2H84.47a1,1,0,0,1,0,2Zm0-18.47H14.89a1,1,0,0,1,0-2H36.25V45.6a1,1,0,1,1,2,0V60h22V45.6a1,1,0,0,1,2,0V60H84.47a1,1,0,0,1,0,2Z"/><polygon points="74.92 11.45 67.2 24.41 72.8 22.99 80.53 10.04 74.92 11.45"/><path d="M78.83,21.47,87,19.4a2.21,2.21,0,0,0,1.6-2.68l-2.07-8.2Z"/><polygon points="57.27 15.92 51.67 17.34 43.94 30.29 49.55 28.87 57.27 15.92"/><polygon points="32.32 33.23 37.92 31.81 45.65 18.86 40.04 20.28 32.32 33.23"/><polygon points="63.3 14.39 55.57 27.35 61.18 25.93 68.9 12.98 63.3 14.39"/></svg>