<svg baseProfile="basic" viewBox="0 0 435 468" xmlns="http://www.w3.org/2000/svg" xmlns:xlink="http://www.w3.org/1999/xlink"><path class="st0" d="M171.3 291H102V108.5h91.3l45.6 45.6v37.2c-8 2.1-15.7 5.2-22.8 9.3v-35.2h-34.2v-34.2h-57v136.9h46.4a79.9 79.9 0 000 22.9zm90.4-91.2a79.9 79.9 0 1056.5 136.4l-56.5-56.5v-79.9z"/><path class="st0" d="M136.2 188.4h11.4v68.5h-11.4v-68.5zm57 31.1v-19.7h-11.4v35.8a97.3 97.3 0 0111.4-16.1zm-22.8-65.4H159v102.7h11.4V154.1zM353 273.9a80 80 0 00-79.9-79.9v79.9l56.5 56.5c15-15 23.4-35.3 23.4-56.5z"/><defs><path id="h" d="M.4.3H435v467.6H.4z"/></defs><clipPath id="g"><use xlink:href="#h"/></clipPath><path clip-path="url(#g)" fill="#188c8f" d="M420.9 350l-155.7 82.4-231.9-40.7v-311l233-45.9 154.6 95z"/><defs><path id="f" d="M.4.3H435v467.6H.4z"/></defs><clipPath id="e"><use xlink:href="#f"/></clipPath><path d="M33.3 391.7v-311l233-45.9 154.6 95V350l-155.7 82.5-231.9-40.8zM.4 60.9v352.8L265.8 468 435 362.5V119.3L265.7.3.4 60.9z" clip-path="url(#e)" fill="#076d6d"/><defs><path id="d" d="M.4.3H435v467.6H.4z"/></defs><clipPath id="c"><use xlink:href="#d"/></clipPath><g clip-path="url(#c)"><defs><path id="b" d="M.4.3H435v467.6H.4z"/></defs><clipPath id="a"><use xlink:href="#b"/></clipPath><path d="M263.6 90.9a42 42 0 00-17.7 80l1.8.9.6 1.9 15.3 46.9 15.3-46.9.6-1.9 1.8-.9a42 42 0 00-17.7-80m0 64.9a21.6 21.6 0 110-43.3 21.6 21.6 0 010 43.3M358 312.5l-28.5-108.3a21.8 21.8 0 00-19.8-15.1h-25.1l-1.7 5.3h25.9c3.7 0 7 2.5 8 6.1l6.3 22.2-42.5 35.1-168.4-30.9 7.5-26.4c1-3.6 4.3-6.1 8.1-6.1h116.5l-1.7-5.3H125.8c-8.6 0-17.4 6.8-19.6 15.1L79.5 312.5c-2.2 8.3 3.1 15.2 11.7 15.2h255.3c8.6-.1 13.8-6.9 11.5-15.2m-223.4-10.8h-30a8.3 8.3 0 01-8.1-10.6l12.4-52.9 25.6 4.7.1 58.8zm11.8 0V245l122.7 22.5-40.8 34.2h-81.9zm192.4-3.3a8.4 8.4 0 01-6.7 3.3h-85.6l80.1-67.3 13.5 56.6c.8 2.6.3 5.3-1.3 7.4" clip-path="url(#a)" fill="#fff"/></g></svg>
