<?xml version="1.0" encoding="UTF-8"?>
<svg baseProfile="basic" version="1.1" viewBox="0 0 435 468" xml:space="preserve" xmlns="http://www.w3.org/2000/svg" xmlns:xlink="http://www.w3.org/1999/xlink">
<style type="text/css">
	.st0{fill:#FFFFFF;}
	.st1{clip-path:url(#g);fill:#188C8F;}
	.st2{clip-path:url(#e);fill:#076D6D;}
	.st3{clip-path:url(#c);}
	.st4{clip-path:url(#a);fill:#FFFFFF;}
</style>
<title>reporting-product-icon-for-lt-bg</title>
<path class="st0" d="m171.3 291h-69.3v-182.5h91.3l45.6 45.6v37.2c-8 2.1-15.7 5.2-22.8 9.3v-35.2h-34.2v-34.2h-57v136.9h46.4c-1.1 7.7-1.1 15.4 0 22.9zm90.4-91.2c-44.1 0-79.9 35.7-79.9 79.9 0 44.1 35.7 79.9 79.9 79.9 21.2 0 41.5-8.4 56.5-23.4l-56.5-56.5v-79.9z"/>
<path class="st0" d="m136.2 188.4h11.4v68.5h-11.4v-68.5zm57 31.1v-19.7h-11.4v35.8c3.3-5.8 7.1-11.2 11.4-16.1zm-22.8-65.4h-11.4v102.7h11.4v-102.7zm182.6 119.8c0-44.1-35.8-79.9-79.9-79.9v79.9l56.5 56.5c15-15 23.4-35.3 23.4-56.5z"/>

	
		
			<defs>
				<rect id="h" x=".4" y=".3" width="434.6" height="467.6"/>
			</defs>
			<clipPath id="g">
				<use xlink:href="#h"/>
			</clipPath>
			<polygon class="st1" points="420.9 350 265.2 432.4 33.3 391.7 33.3 80.7 266.3 34.8 420.9 129.8"/>
		
		
			<defs>
				<rect id="f" x=".4" y=".3" width="434.6" height="467.6"/>
			</defs>
			<clipPath id="e">
				<use xlink:href="#f"/>
			</clipPath>
			<path class="st2" d="M33.3,391.7v-311l233-45.9l154.6,95V350l-155.7,82.5L33.3,391.7z M0.4,60.9v352.8L265.8,468L435,362.5V119.3     L265.7,0.3L0.4,60.9z"/>
		
		
			<defs>
				<rect id="d" x=".4" y=".3" width="434.6" height="467.6"/>
			</defs>
			<clipPath id="c">
				<use xlink:href="#d"/>
			</clipPath>
			<g class="st3">
				
					<defs>
						<rect id="b" x=".4" y=".3" width="434.6" height="467.6"/>
					</defs>
					<clipPath id="a">
						<use xlink:href="#b"/>
					</clipPath>
					<path class="st4" d="m263.6 90.9c-23.2 0-42 18.9-42 42 0 16.2 9.5 31.1 24.3 38l1.8 0.9 0.6 1.9 15.3 46.9 15.3-46.9 0.6-1.9 1.8-0.9c14.7-6.9 24.3-21.8 24.3-38 0.1-23.1-18.8-42-42-42m0 64.9c-11.9 0-21.6-9.7-21.6-21.6s9.7-21.6 21.6-21.6 21.6 9.7 21.6 21.6c0.1 11.9-9.6 21.6-21.6 21.6m94.4 156.7-28.5-108.3c-2.3-8.3-11.2-15.1-19.8-15.1h-25.1l-1.7 5.3h25.9c3.7 0 7 2.5 8 6.1l6.3 22.2-42.5 35.1-168.4-30.9 7.5-26.4c1-3.6 4.3-6.1 8.1-6.1h116.5l-1.7-5.3h-116.8c-8.6 0-17.4 6.8-19.6 15.1l-26.7 108.3c-2.2 8.3 3.1 15.2 11.7 15.2h255.3c8.6-0.1 13.8-6.9 11.5-15.2m-223.4-10.8h-30c-2.6 0-5.1-1.2-6.7-3.3s-2.1-4.8-1.4-7.3l12.4-52.9 25.6 4.7 0.1 58.8zm11.8 0v-56.7l122.7 22.5-40.8 34.2h-81.9zm192.4-3.3c-1.6 2.1-4.1 3.3-6.7 3.3h-85.6l80.1-67.3 13.5 56.6c0.8 2.6 0.3 5.3-1.3 7.4"/>
				
			</g>
		
	

</svg>
