<svg viewBox="0 0 24 24" xmlns="http://www.w3.org/2000/svg"><path fill="#0f979b" d="M14.47 0L.85 3.1v18.11L14.47 24l8.68-5.41V6.1z"/><path fill="#0c797c" d="M14.47 0L.85 3.1v18.11L14.47 24l8.68-5.41V6.1L14.47 0zm7.96 17.95l-7.99 4.23-11.9-2.1V4.14l11.95-2.36 7.94 4.87v11.3z"/><path fill="#fff" d="M14.36 4.65a2.16 2.16 0 00-.91 4.11l.09.05.03.1.79 2.4.79-2.4.03-.1.1-.05a2.16 2.16 0 00-.91-4.11zm0 3.33a1.11 1.11 0 110-2.22 1.11 1.11 0 010 2.22zm4.84 8.04l-1.46-5.56a1.12 1.12 0 00-1.02-.77h-1.28l-.1.27h1.34c.2 0 .36.13.41.31l.33 1.14-2.18 1.8-8.65-1.58.39-1.36a.43.43 0 01.41-.31h5.98l-.09-.27h-6c-.44 0-.9.35-1 .78L4.9 16.02c-.11.43.16.78.6.78h13.1c.44 0 .7-.35.6-.78zm-11.46-.55H6.2a.43.43 0 01-.34-.17.43.43 0 01-.07-.38l.64-2.71 1.3.24v3.02zm.6 0v-2.91l6.3 1.15-2.1 1.76h-4.2zm9.88-.17a.43.43 0 01-.35.17h-4.4l4.12-3.45.7 2.9a.43.43 0 01-.07.38z"/></svg>
