<?xml version="1.0" encoding="utf-8"?>
<!-- Generator: Adobe Illustrator 22.1.0, SVG Export Plug-In . SVG Version: 6.00 Build 0)  -->
<svg version="1.1" baseProfile="basic" id="Layer_1"
	 xmlns="http://www.w3.org/2000/svg" xmlns:xlink="http://www.w3.org/1999/xlink" x="0px" y="0px" viewBox="0 0 435 468"
	 xml:space="preserve">
<style type="text/css">
	.st0{fill:#FFFFFF;}
	.st1{clip-path:url(#SVGID_2_);fill:#188C8F;}
	.st2{clip-path:url(#SVGID_4_);fill:#076D6D;}
	.st3{clip-path:url(#SVGID_6_);}
	.st4{clip-path:url(#SVGID_8_);fill:#FFFFFF;}
</style>
<title>reporting-product-icon-for-lt-bg</title>
<path id="Dark" class="st0" d="M171.3,291H102V108.5h91.3l45.6,45.6v37.2c-8,2.1-15.7,5.2-22.8,9.3v-35.2h-34.2v-34.2h-57v136.9
	h46.4C170.2,275.8,170.2,283.5,171.3,291L171.3,291z M261.7,199.8c-44.1,0-79.9,35.7-79.9,79.9c0,44.1,35.7,79.9,79.9,79.9
	c21.2,0,41.5-8.4,56.5-23.4l-56.5-56.5V199.8z"/>
<path id="Color" class="st0" d="M136.2,188.4h11.4v68.5h-11.4V188.4z M193.2,219.5v-19.7h-11.4v35.8
	C185.1,229.8,188.9,224.4,193.2,219.5L193.2,219.5z M170.4,154.1H159v102.7h11.4V154.1z M353,273.9c0-44.1-35.8-79.9-79.9-79.9v79.9
	l56.5,56.5C344.6,315.4,353,295.1,353,273.9z"/>
<g>
	<g>
		<g>
			<defs>
				<rect id="SVGID_1_" x="0.4" y="0.3" width="434.6" height="467.6"/>
			</defs>
			<clipPath id="SVGID_2_">
				<use xlink:href="#SVGID_1_"  style="overflow:visible;"/>
			</clipPath>
			<polygon class="st1" points="420.9,350 265.2,432.4 33.3,391.7 33.3,80.7 266.3,34.8 420.9,129.8 			"/>
		</g>
		<g>
			<defs>
				<rect id="SVGID_3_" x="0.4" y="0.3" width="434.6" height="467.6"/>
			</defs>
			<clipPath id="SVGID_4_">
				<use xlink:href="#SVGID_3_"  style="overflow:visible;"/>
			</clipPath>
			<path class="st2" d="M33.3,391.7v-311l233-45.9l154.6,95V350l-155.7,82.5L33.3,391.7z M0.4,60.9v352.8L265.8,468L435,362.5V119.3
				L265.7,0.3L0.4,60.9z"/>
		</g>
		<g id="Vector_Smart_Object_1_">
			<defs>
				<rect id="SVGID_5_" x="0.4" y="0.3" width="434.6" height="467.6"/>
			</defs>
			<clipPath id="SVGID_6_">
				<use xlink:href="#SVGID_5_"  style="overflow:visible;"/>
			</clipPath>
			<g class="st3">
				<g>
					<defs>
						<rect id="SVGID_7_" x="0.4" y="0.3" width="434.6" height="467.6"/>
					</defs>
					<clipPath id="SVGID_8_">
						<use xlink:href="#SVGID_7_"  style="overflow:visible;"/>
					</clipPath>
					<path class="st4" d="M263.6,90.9c-23.2,0-42,18.9-42,42c0,16.2,9.5,31.1,24.3,38l1.8,0.9l0.6,1.9l15.3,46.9l15.3-46.9l0.6-1.9
						l1.8-0.9c14.7-6.9,24.3-21.8,24.3-38C305.7,109.8,286.8,90.9,263.6,90.9 M263.6,155.8c-11.9,0-21.6-9.7-21.6-21.6
						s9.7-21.6,21.6-21.6c11.9,0,21.6,9.7,21.6,21.6C285.3,146.1,275.6,155.8,263.6,155.8 M358,312.5l-28.5-108.3
						c-2.3-8.3-11.2-15.1-19.8-15.1h-25.1l-1.7,5.3h25.9c3.7,0,7,2.5,8,6.1l6.3,22.2l-42.5,35.1l-168.4-30.9l7.5-26.4
						c1-3.6,4.3-6.1,8.1-6.1H173h71.3l-1.7-5.3H125.8c-8.6,0-17.4,6.8-19.6,15.1L79.5,312.5c-2.2,8.3,3.1,15.2,11.7,15.2h255.3
						C355.1,327.6,360.3,320.8,358,312.5 M134.6,301.7h-30c-2.6,0-5.1-1.2-6.7-3.3c-1.6-2.1-2.1-4.8-1.4-7.3l12.4-52.9l25.6,4.7
						L134.6,301.7L134.6,301.7z M146.4,301.7V245l122.7,22.5l-40.8,34.2H146.4z M338.8,298.4c-1.6,2.1-4.1,3.3-6.7,3.3h-85.6
						l80.1-67.3l13.5,56.6C340.9,293.6,340.4,296.3,338.8,298.4"/>
				</g>
			</g>
		</g>
	</g>
</g>
</svg>
