<svg viewBox="0 0 435 468" xmlns="http://www.w3.org/2000/svg"><path fill="#df5143" d="M5 64.2v345l259.5 53 165.5-103V121.4L264.5 5z"/><path fill="#b24136" d="M265.6 0L0 60.6v353.1L265.6 468 435 362.5V119.1L265.6 0zm155.3 350l-155.8 82.5-232.2-40.8V80.4l233.2-46 154.8 95.1V350z"/><g fill="#fff"><path d="M171.2 291H102V108.5h91.3l45.6 45.6v37.2a89.6 89.6 0 00-22.8 9.3v-35.2h-34.2v-34.2h-57v136.9h46.4a85 85 0 00-.1 22.9zm90.5-91.2a80 80 0 1056.5 136.4l-56.5-56.5v-79.9z"/><path d="M136.2 188.4h11.4v68.5h-11.4v-68.5zm57.1 31.1v-19.7h-11.4v35.8c3.2-5.8 7-11.2 11.4-16.1zm-22.8-65.4H159v102.7h11.4V154.1zM353 273.9a80 80 0 00-79.9-79.9v79.9l56.5 56.5a79.3 79.3 0 0023.4-56.5z"/></g></svg>
