<svg xmlns="http://www.w3.org/2000/svg" viewBox="0 0 24 24"><path fill="#DD5143" d="M14.47 0L.85 3.1v18.11L14.47 24l8.68-5.41V6.1z"/><path fill="#B94337" d="M14.47 0L.85 3.1v18.11L14.47 24l8.68-5.41V6.1L14.47 0zm7.96 17.95l-7.99 4.23-11.9-2.1V4.14l11.95-2.36 7.94 4.87v11.3z"/><g fill="#FFF"><path d="M9.63 14.93H6.08V5.56h4.68L13.1 7.9v1.91c-.42.11-.81.27-1.17.48V8.5h-1.76V6.73H7.25v7.03h2.38a4.69 4.69 0 000 1.17zm4.64-4.69a4.1 4.1 0 102.9 7l-2.9-2.9v-4.1z"/><path d="M7.83 9.66h.59v3.51h-.59V9.66zm2.93 1.6v-1.02h-.59v1.84c.17-.3.36-.57.59-.83zM9.59 7.9H9v5.27h.59V7.9zm9.36 6.15a4.1 4.1 0 00-4.1-4.1v4.1l2.9 2.9a4.08 4.08 0 001.2-2.9z"/></g></svg>
