<?xml version="1.0" encoding="UTF-8"?>
<svg viewBox="0 0 435 468" xmlns="http://www.w3.org/2000/svg">
    <title>reporting-product-icon-for-lt-bg</title>
    <defs>
        <style>.a{fill:#df5143}.b{fill:#b24136}.c{fill:#FFFFFF}</style>
    </defs>
    <polygon
        class="a"
        points="5,64.2 5,409.2 264.5,462.2 430,359.2 430,121.4 264.5,5 "
    />
    <path
        class="b"
        d="M265.6,0L0,60.6v353.1L265.6,468L435,362.5V119.1L265.6,0z M420.9,350l-155.8,82.5L32.9,391.7V80.4l233.2-46l154.8,95.1V350z"
    />
    <g>
        <path
            class="c"
            d="M171.2,291H102V108.5h91.3l45.6,45.6v37.2c-8.1,2.1-15.8,5.2-22.8,9.3v-35.2h-34.2v-34.2h-57v136.9h46.4c-0.5,3.7-0.8,7.5-0.8,11.4C170.5,283.5,170.8,287.3,171.2,291z M261.7,199.8c-44.1,0-79.9,35.8-79.9,79.9s35.8,79.9,79.9,79.9c22.1,0,42-8.9,56.5-23.4l-56.5-56.5V199.8z"
        />
        <path
            class="c"
            d="M136.2,188.4h11.4v68.5h-11.4V188.4z M193.3,219.5v-19.7h-11.4v35.8C185.1,229.8,188.9,224.4,193.3,219.5z M170.5,154.1H159v102.7h11.4V154.1z M353,273.9c0-44.1-35.8-79.9-79.9-79.9v79.9l56.5,56.5C344.1,316,353,296,353,273.9z"
        />
    </g>
</svg>
    
