<svg id="icon" xmlns="http://www.w3.org/2000/svg">
    <svg viewBox="-12 -11 48 48">
        <!-- This is copied from the spectrum-workflow.svg file as nesting wasn't possible -->
        <path fill="#177dbf" d="M15 7H9V1h6v6zM7 17H1v6h6v-6zm8 0H9v6h6v-6zm8 0h-6v6h6v-6zm-10-6V8h-2v3H3v5h2v-3h6v3h2v-3h6v3h2v-5h-8z"/>
    </svg>
    <svg viewBox="-200 -190 500 500">
        <!-- This is copied from the spectrum-code.svg file as nesting wasn't possible -->
        <switch>
            <g>
                <g>
                    <path fill="#fff" d="M68.4 89.2h151v110.2h-151z" />
                    <path fill="#177dbf" d="M219.4 202.7h-151c-1.8 0-3.3-1.5-3.3-3.3V89.2c0-1.8 1.5-3.3 3.3-3.3h151c1.8 0 3.3 1.5 3.3 3.3v110.2c0 1.8-1.5 3.3-3.3 3.3zm-147.7-6.6h144.4V92.5H71.7v103.6z"  />
                    <path fill="#177dbf" d="M218.4 112.4h-150c-1.8 0-3.3-1.5-3.3-3.3s1.5-3.3 3.3-3.3h150c1.8 0 3.3 1.5 3.3 3.3s-1.5 3.3-3.3 3.3z"  />
                    <g>
                        <path fill="#177dbf" d="M191.5 111.1c-1.8 0-3.3-1.5-3.3-3.3V89.2c0-1.8 1.5-3.3 3.3-3.3s3.3 1.5 3.3 3.3v18.6c0 1.8-1.5 3.3-3.3 3.3z"  />
                    </g>
                    <g>
                        <path fill="#177dbf" d="M125.6 176l-29.2-20.8v-5.1l29.2-22.6v9.2l-21.3 15.7v.2l21.3 14.2v9.2zM154.9 126.1l-16.6 59.2h-5l16.5-59.2h5.1zM192.3 154.9l-29.2 20.8v-9.2l21.4-14.1v-.3l-21.4-15.7v-9.2l29.2 22.5v5.2z" stroke="#1e6da6" stroke-width=".5" stroke-linecap="round" stroke-linejoin="round" stroke-miterlimit="10" />
                    </g>
                </g>
            </g>
        </switch>
    </svg>
</svg>