<svg id="icon" xmlns="http://www.w3.org/2000/svg">
    <svg viewBox="-10 -10 300 300">
        <switch>
            <g>
                <path fill="#fff" d="M68.4 89.2h151v110.2h-151z" />
                <path fill="#177dbf" d="M219.4 202.7h-151c-1.8 0-3.3-1.5-3.3-3.3V89.2c0-1.8 1.5-3.3 3.3-3.3h151c1.8 0 3.3 1.5 3.3 3.3v110.2c0 1.8-1.5 3.3-3.3 3.3zm-147.7-6.6h144.4V92.5H71.7v103.6z" />
                <path fill="#177dbf" d="M218.4 112.4h-150c-1.8 0-3.3-1.5-3.3-3.3s1.5-3.3 3.3-3.3h150c1.8 0 3.3 1.5 3.3 3.3s-1.5 3.3-3.3 3.3z" />
                <g>
                    <path fill="#177dbf" d="M191.5 111.1c-1.8 0-3.3-1.5-3.3-3.3V89.2c0-1.8 1.5-3.3 3.3-3.3s3.3 1.5 3.3 3.3v18.6c0 1.8-1.5 3.3-3.3 3.3z" />
                </g>
                <g>
                    <path fill="#177dbf" d="M141.8535 153.36022l5.42124-3.76464 19.6788 28.3383-5.42124 3.76464z" />
                    <path fill="#177dbf" d="M129.4 170.3l-3.9-46.2 42 19.7z" />
                </g>
            </g>
        </switch>
    </svg>
</svg>