<svg viewBox="0 0 435 468" xmlns="http://www.w3.org/2000/svg"><path fill="#1779ba" d="M22.7 18.1l-8.2 4.4-12.3-2.2V3.9l12.4-2.4 8.1 5v11.6z"/><path fill="#13659a" d="M14.5 0L.8 3.1v18.1L14.5 24l8.7-5.4V6.1L14.5 0zm7.9 17.9l-8 4.2-11.9-2v-16l12-2.4 7.9 4.9v11.3z"/><path fill="#fff" d="M18.1 9.2h-4.4l-1.2 3.6-1.2-3.6H6.8c-.2 0-.3.1-.3.3v7.6c0 .2.1.3.3.3h4.3v.6h-.6c-.1 0-.3.1-.3.3 0 .1.1.3.3.3h4.1c.1 0 .3-.1.3-.3 0-.1-.1-.3-.3-.3H14v-.7h4.2c.2 0 .3-.1.3-.3V9.5c-.1-.2-.2-.3-.4-.3zm-.5 2.8l-.2-.1-4.1 2 2 1 2.2-1.1v2c0 .2-.1.3-.3.3H13l1.6-.8-2.1-1-2.3 1.1 1.4.7h-4c-.2 0-.3-.1-.3-.3v-2.1l.4.3 1.9 1 2.1-1-4.1-2.1-.3.1v-1.9c0-.2.1-.3.3-.3h3.5l-2.9 1.5 4.3 2.2 4.1-2-3.1-1.7h3.9c.2 0 .3.1.3.3V12h-.1zm-5.1-7.8c-1.2 0-2.2 1-2.2 2.2 0 .9.5 1.7 1.3 2h.1v.1l.8 2.5.8-2.5v-.1h.1c.8-.4 1.3-1.2 1.3-2 0-1.2-1-2.2-2.2-2.2zm0 3.4c-.6 0-1.2-.5-1.2-1.2s.5-1.2 1.2-1.2 1.2.5 1.2 1.2-.6 1.2-1.2 1.2z"/></svg>