<?xml version="1.0" encoding="utf-8"?>
<!-- Generator: Adobe Illustrator 22.1.0, SVG Export Plug-In . SVG Version: 6.00 Build 0)  -->
<svg version="1.1" baseProfile="tiny" id="Layer_1" xmlns="http://www.w3.org/2000/svg" xmlns:xlink="http://www.w3.org/1999/xlink"
	 x="0px" y="0px" viewBox="0 0 435 468" xml:space="preserve">
<title>reporting-product-icon-for-lt-bg</title>
<path id="Dark" fill="#FFFFFF" d="M171.3,291H102V108.5h91.3l45.6,45.6v37.2c-8,2.1-15.7,5.2-22.8,9.3v-35.2h-34.2v-34.2h-57v136.9
	h46.4C170.2,275.8,170.2,283.5,171.3,291L171.3,291z M261.7,199.8c-44.1,0-79.9,35.7-79.9,79.9c0,44.1,35.7,79.9,79.9,79.9
	c21.2,0,41.5-8.4,56.5-23.4l-56.5-56.5V199.8z"/>
<path id="Color" fill="#FFFFFF" d="M136.2,188.4h11.4v68.5h-11.4V188.4z M193.2,219.5v-19.7h-11.4v35.8
	C185.1,229.8,188.9,224.4,193.2,219.5L193.2,219.5z M170.4,154.1H159v102.7h11.4V154.1z M353,273.9c0-44.1-35.8-79.9-79.9-79.9v79.9
	l56.5,56.5C344.6,315.4,353,295.1,353,273.9z"/>
<g>
	<path fill="#196CA3" d="M144.2,221.3l55.8-29H132c-2.9,0-5.3,2.4-5.3,5.3v37.5l6.2-3.1l78.6,39.8l-40,20.1L135,273.7l0.1,0
		l-8.4-4.2v40c0,2.9,2.4,5.3,5.3,5.3h78.9l-26.6-13.3l43.6-21.8l39.7,19.9l-30.5,15.2H321c2.9,0,5.3-2.4,5.3-5.3v-39l-42.4,21.2
		l-39.2-19.6l78.6-39.3l3,1.5v-36.6c0-2.9-2.4-5.3-5.3-5.3h-74.6l60.6,32.3l-79,38.9L144.2,221.3z"/>
	<path fill="#196CA3" d="M239.2,127.3c0-6.5-5.3-11.8-11.8-11.8s-11.8,5.3-11.8,11.8c0,6.5,5.3,11.8,11.8,11.8
		S239.2,133.9,239.2,127.3z"/>
	<path fill="#196CA3" d="M34.7,81.8v309l230.4,40.4l154.7-81.9V130.6L266.2,36.2L34.7,81.8z M336,179.8c2.9,0,5.3,2.4,5.3,5.3v147.5
		c0,2.9-2.4,5.3-5.3,5.3h-80.4v12.7c0,0.2,0,0.4-0.1,0.5h11.5c2.7,0,4.9,2.2,4.9,4.9c0,2.7-2.2,4.9-4.9,4.9h-78.6
		c-2.7,0-4.9-2.2-4.9-4.9c0-2.7,2.2-4.9,4.9-4.9H200c0-0.2-0.1-0.4-0.1-0.5v-12.7h-83c-2.9,0-5.3-2.4-5.3-5.3V185.1
		c0-2.9,2.4-5.3,5.3-5.3h87.5l-2-6.1c-17.6-9.3-28.8-27.7-28.8-47.6c0-29.7,24.1-53.8,53.8-53.8s53.8,24.1,53.8,53.8
		c0,19.9-11.2,38.3-28.8,47.6l-2,6.1H336z"/>
	<path fill="#0C5581" d="M2,62.1v350.5l263.7,53.9l168.2-104.7V120.2L265.7,2h0L2,62.1z M419.8,349.4l-154.7,81.9L34.7,390.9v-309
		l231.5-45.6l153.6,94.4V349.4z"/>
	<path fill="#FFFFFF" d="M204.4,179.8h-87.5c-2.9,0-5.3,2.4-5.3,5.3v147.5c0,2.9,2.4,5.3,5.3,5.3h83v12.7c0,0.2,0,0.4,0.1,0.5h-11.5
		c-2.7,0-4.9,2.2-4.9,4.9c0,2.7,2.2,4.9,4.9,4.9h78.6c2.7,0,4.9-2.2,4.9-4.9c0-2.7-2.2-4.9-4.9-4.9h-11.5c0-0.2,0.1-0.4,0.1-0.5
		v-12.7H336c2.9,0,5.3-2.4,5.3-5.3V185.1c0-2.9-2.4-5.3-5.3-5.3h-85.6l-23,70.4L204.4,179.8z M246.5,192.3H321
		c2.9,0,5.3,2.4,5.3,5.3v36.6l-3-1.5l-78.6,39.3l39.2,19.6l42.4-21.2v39c0,2.9-2.4,5.3-5.3,5.3h-83.8l30.5-15.2l-39.7-19.9
		l-43.6,21.8l26.6,13.3H132c-2.9,0-5.3-2.4-5.3-5.3v-40l8.4,4.2l-0.1,0l36.4,18.3l40-20.1L132.9,232l-6.2,3.1v-37.5
		c0-2.9,2.4-5.3,5.3-5.3H200l-55.8,29l83.9,42.2l79-38.9L246.5,192.3z"/>
	<path fill="#196CA3" d="M281.2,126.1c0-29.7-24.1-53.8-53.8-53.8s-53.8,24.1-53.8,53.8c0,19.9,11.2,38.3,28.8,47.6l2,6.1l23,70.4
		l23-70.4l2-6.1C270,164.4,281.2,146,281.2,126.1z M227.4,216.5l-15.8-48.3l-0.6-2l-1.9-0.9c-15.2-7.1-25-22.5-25-39.2
		c0-23.9,19.4-43.3,43.3-43.3s43.3,19.4,43.3,43.3c0,16.7-9.8,32.1-25,39.2l-1.9,0.9l-0.6,2L227.4,216.5z"/>
	<path fill="#196CA3" d="M249.7,127.3c0-12.3-10-22.3-22.3-22.3s-22.3,10-22.3,22.3c0,12.3,10,22.3,22.3,22.3
		S249.7,139.7,249.7,127.3z M215.6,127.3c0-6.5,5.3-11.8,11.8-11.8s11.8,5.3,11.8,11.8c0,6.5-5.3,11.8-11.8,11.8
		S215.6,133.9,215.6,127.3z"/>
	<path fill="#FFFFFF" d="M243.9,166.2l1.9-0.9c15.2-7.1,25-22.5,25-39.2c0-23.9-19.4-43.3-43.3-43.3s-43.3,19.4-43.3,43.3
		c0,16.7,9.8,32.1,25,39.2l1.9,0.9l0.6,2l15.8,48.3l15.8-48.4L243.9,166.2z M227.4,149.6c-12.3,0-22.3-10-22.3-22.3
		c0-12.3,10-22.3,22.3-22.3s22.3,10,22.3,22.3C249.7,139.7,239.7,149.6,227.4,149.6z"/>
</g>
</svg>
