<svg xmlns="http://www.w3.org/2000/svg" viewBox="0 0 435 468"><defs><style>.a{fill:none}.b{fill:#00969a}.c{fill:#00777a}.d{clip-path:url(#a)}.e{fill:#fff}</style><clipPath id="a"><path class="a" d="M96.9 99.5h250.7v250.7H96.9z"/></clipPath></defs><title>Workflow-product-icon--for-lt-bg</title><path class="b" d="M5 64.2v345l259.5 53 165.5-103V121.3L264.5 5 5 64.2z"/><path class="c" d="M265.6 0L0 60.6v353.1L265.6 468 435 362.5V119.1zm155.3 350l-155.8 82.5-232.2-40.8V80.4l233.2-46 154.8 95.1z"/><g class="d"><g class="d"><path class="e" d="M245.1 167.8h-45.6a11.39 11.39 0 0 1-11.4-11.4v-45.6a11.39 11.39 0 0 1 11.4-11.4h45.6a11.39 11.39 0 0 1 11.4 11.4v45.6a11.39 11.39 0 0 1-11.4 11.4m-91.2 182.3h-45.6a11.39 11.39 0 0 1-11.4-11.4v-45.6a11.39 11.39 0 0 1 11.4-11.4h45.6a11.39 11.39 0 0 1 11.4 11.4v45.6a11.39 11.39 0 0 1-11.4 11.4m91.2 0h-45.6a11.39 11.39 0 0 1-11.4-11.4v-45.6a11.39 11.39 0 0 1 11.4-11.4h45.6a11.39 11.39 0 0 1 11.4 11.4v45.6a11.39 11.39 0 0 1-11.4 11.4m91.1 0h-45.6a11.39 11.39 0 0 1-11.4-11.4v-45.6a11.39 11.39 0 0 1 11.4-11.4h45.6a11.39 11.39 0 0 1 11.4 11.4v45.6a11.39 11.39 0 0 1-11.4 11.4m-31.3-82.6v-34.2h-74.1v34.2h-17.1v-34.2h-74.1v34.2h-17.1v-42.7a8.64 8.64 0 0 1 8.5-8.6h82.6V182h17.1v34.2h82.6a8.58 8.58 0 0 1 8.6 8.5v42.7h-17z"/></g></g></svg>