<svg xmlns="http://www.w3.org/2000/svg" xmlns:xlink="http://www.w3.org/1999/xlink" viewBox="0 0 24 24"><path fill="#00969A" d="M14.47 0L.85 3.1v18.11L14.47 24l8.68-5.41V6.1z"/><path fill="#00777a" d="M14.47 0L.85 3.1v18.11L14.47 24l8.68-5.41V6.1L14.47 0zm7.96 17.95l-7.99 4.23-11.9-2.1V4.14l11.95-2.36 7.94 4.87v11.3z"/><defs><path id="a" d="M5.83 5.09h12.86v12.86H5.83z"/></defs><clipPath id="b"><use xlink:href="#a" overflow="visible"/></clipPath><path clip-path="url(#b)" fill="#FFF" d="M13.43 8.6H11.1a.58.58 0 01-.58-.59V5.67c0-.32.26-.58.58-.58h2.34c.32 0 .59.26.59.58v2.34c0 .32-.27.58-.59.58M8.75 17.95H6.42a.58.58 0 01-.59-.59v-2.33c0-.33.26-.59.59-.59h2.33c.33 0 .59.26.59.59v2.33c0 .33-.26.59-.59.59M13.43 17.95H11.1a.58.58 0 01-.58-.59v-2.33c0-.33.26-.59.58-.59h2.34c.32 0 .59.26.59.59v2.33c0 .33-.27.59-.59.59M18.1 17.95h-2.33a.58.58 0 01-.59-.59v-2.33c0-.33.27-.59.59-.59h2.34c.32 0 .58.26.58.59v2.33c0 .33-.26.59-.58.59M16.5 13.71v-1.75h-3.8v1.75h-.88v-1.75h-3.8v1.75h-.87v-2.2c0-.23.2-.43.43-.43h4.24V9.33h.88v1.75h4.24c.24 0 .44.2.44.44v2.19h-.88z"/></svg>
