<?xml version="1.0" encoding="UTF-8"?>
<svg baseProfile="tiny" version="1.1" viewBox="0 0 435 468" xml:space="preserve" xmlns="http://www.w3.org/2000/svg">
<title>reporting-product-icon-for-lt-bg</title>
<path d="m171.3 291h-69.3v-182.5h91.3l45.6 45.6v37.2c-8 2.1-15.7 5.2-22.8 9.3v-35.2h-34.2v-34.2h-57v136.9h46.4c-1.1 7.7-1.1 15.4 0 22.9zm90.4-91.2c-44.1 0-79.9 35.7-79.9 79.9 0 44.1 35.7 79.9 79.9 79.9 21.2 0 41.5-8.4 56.5-23.4l-56.5-56.5v-79.9z" fill="#fff"/>
<path d="m136.2 188.4h11.4v68.5h-11.4v-68.5zm57 31.1v-19.7h-11.4v35.8c3.3-5.8 7.1-11.2 11.4-16.1zm-22.8-65.4h-11.4v102.7h11.4v-102.7zm182.6 119.8c0-44.1-35.8-79.9-79.9-79.9v79.9l56.5 56.5c15-15 23.4-35.3 23.4-56.5z" fill="#fff"/>

	<path d="m144.2 221.3 55.8-29h-68c-2.9 0-5.3 2.4-5.3 5.3v37.5l6.2-3.1 78.6 39.8-40 20.1-36.5-18.2h0.1l-8.4-4.2v40c0 2.9 2.4 5.3 5.3 5.3h78.9l-26.6-13.3 43.6-21.8 39.7 19.9-30.5 15.2h83.9c2.9 0 5.3-2.4 5.3-5.3v-39l-42.4 21.2-39.2-19.6 78.6-39.3 3 1.5v-36.6c0-2.9-2.4-5.3-5.3-5.3h-74.6l60.6 32.3-79 38.9-83.8-42.3z" fill="#196CA3"/>
	<path d="m239.2 127.3c0-6.5-5.3-11.8-11.8-11.8s-11.8 5.3-11.8 11.8 5.3 11.8 11.8 11.8 11.8-5.2 11.8-11.8z" fill="#196CA3"/>
	<path d="m34.7 81.8v309l230.4 40.4 154.7-81.9v-218.7l-153.6-94.4-231.5 45.6zm301.3 98c2.9 0 5.3 2.4 5.3 5.3v147.5c0 2.9-2.4 5.3-5.3 5.3h-80.4v12.7c0 0.2 0 0.4-0.1 0.5h11.5c2.7 0 4.9 2.2 4.9 4.9s-2.2 4.9-4.9 4.9h-78.6c-2.7 0-4.9-2.2-4.9-4.9s2.2-4.9 4.9-4.9h11.6c0-0.2-0.1-0.4-0.1-0.5v-12.7h-83c-2.9 0-5.3-2.4-5.3-5.3v-147.5c0-2.9 2.4-5.3 5.3-5.3h87.5l-2-6.1c-17.6-9.3-28.8-27.7-28.8-47.6 0-29.7 24.1-53.8 53.8-53.8s53.8 24.1 53.8 53.8c0 19.9-11.2 38.3-28.8 47.6l-2 6.1h85.6z" fill="#196CA3"/>
	<path d="M2,62.1v350.5l263.7,53.9l168.2-104.7V120.2L265.7,2h0L2,62.1z M419.8,349.4l-154.7,81.9L34.7,390.9v-309   l231.5-45.6l153.6,94.4V349.4z" fill="#0C5581"/>
	<path d="m204.4 179.8h-87.5c-2.9 0-5.3 2.4-5.3 5.3v147.5c0 2.9 2.4 5.3 5.3 5.3h83v12.7c0 0.2 0 0.4 0.1 0.5h-11.5c-2.7 0-4.9 2.2-4.9 4.9s2.2 4.9 4.9 4.9h78.6c2.7 0 4.9-2.2 4.9-4.9s-2.2-4.9-4.9-4.9h-11.5c0-0.2 0.1-0.4 0.1-0.5v-12.7h80.3c2.9 0 5.3-2.4 5.3-5.3v-147.5c0-2.9-2.4-5.3-5.3-5.3h-85.6l-23 70.4-23-70.4zm42.1 12.5h74.5c2.9 0 5.3 2.4 5.3 5.3v36.6l-3-1.5-78.6 39.3 39.2 19.6 42.4-21.2v39c0 2.9-2.4 5.3-5.3 5.3h-83.8l30.5-15.2-39.7-19.9-43.6 21.8 26.6 13.3h-79c-2.9 0-5.3-2.4-5.3-5.3v-40l8.4 4.2h-0.1l36.4 18.3 40-20.1-78.5-39.8-6.2 3.1v-37.5c0-2.9 2.4-5.3 5.3-5.3h68l-55.8 29 83.9 42.2 79-38.9-60.6-32.3z" fill="#fff"/>
	<path d="m281.2 126.1c0-29.7-24.1-53.8-53.8-53.8s-53.8 24.1-53.8 53.8c0 19.9 11.2 38.3 28.8 47.6l2 6.1 23 70.4 23-70.4 2-6.1c17.6-9.3 28.8-27.7 28.8-47.6zm-53.8 90.4-15.8-48.3-0.6-2-1.9-0.9c-15.2-7.1-25-22.5-25-39.2 0-23.9 19.4-43.3 43.3-43.3s43.3 19.4 43.3 43.3c0 16.7-9.8 32.1-25 39.2l-1.9 0.9-0.6 2-15.8 48.3z" fill="#196CA3"/>
	<path d="m249.7 127.3c0-12.3-10-22.3-22.3-22.3s-22.3 10-22.3 22.3 10 22.3 22.3 22.3 22.3-9.9 22.3-22.3zm-34.1 0c0-6.5 5.3-11.8 11.8-11.8s11.8 5.3 11.8 11.8-5.3 11.8-11.8 11.8-11.8-5.2-11.8-11.8z" fill="#196CA3"/>
	<path d="m243.9 166.2 1.9-0.9c15.2-7.1 25-22.5 25-39.2 0-23.9-19.4-43.3-43.3-43.3s-43.3 19.4-43.3 43.3c0 16.7 9.8 32.1 25 39.2l1.9 0.9 0.6 2 15.8 48.3 15.8-48.4 0.6-1.9zm-16.5-16.6c-12.3 0-22.3-10-22.3-22.3s10-22.3 22.3-22.3 22.3 10 22.3 22.3c0 12.4-10 22.3-22.3 22.3z" fill="#fff"/>

</svg>
